<svg width="1498" height="891" viewBox="0 0 1498 891" fill="none" xmlns="http://www.w3.org/2000/svg">
<mask id="mask0" mask-type="alpha" maskUnits="userSpaceOnUse" x="0" y="0" width="1498" height="891">
<rect width="1498" height="891" fill="#C4C4C4"/>
</mask>
<g mask="url(#mask0)">
<path d="M841.749 468.735L858.656 536.182L891.736 443.536L841.749 468.735Z" fill="#053738" stroke="#053738" stroke-width="1.51"/>
<path d="M858.656 536.182L952.75 568.052L891.736 443.536L858.656 536.182Z" fill="#04393A" stroke="#04393A" stroke-width="1.51"/>
<path d="M952.75 568.052L1011.56 467.253L891.736 443.536L952.75 568.052Z" fill="#04393B" stroke="#04393B" stroke-width="1.51"/>
<path d="M952.75 568.052L999.796 586.581L990.975 554.711L952.75 568.052Z" fill="#033D3F" stroke="#033D3F" stroke-width="1.51"/>
<path d="M849.835 652.545L962.306 596.957L952.75 568.052L849.835 652.545Z" fill="#023E3F" stroke="#023E3F" stroke-width="1.51"/>
<path d="M990.975 554.711L1011.56 467.253L952.75 568.052L990.975 554.711Z" fill="#043C3D" stroke="#043C3D" stroke-width="1.51"/>
<path d="M1121.09 497.641L1112.27 442.794L1011.56 467.253L1121.09 497.641Z" fill="#033B3C" stroke="#033B3C" stroke-width="1.51"/>
<path d="M962.306 596.957L999.796 586.581L952.75 568.052L962.306 596.957Z" fill="#033E3F" stroke="#033E3F" stroke-width="1.51"/>
<path d="M841.749 468.735L719.721 544.334L858.656 536.182L841.749 468.735Z" fill="#053738" stroke="#053738" stroke-width="1.51"/>
<path d="M822.636 341.255L763.828 401.289L841.749 468.735L822.636 341.255Z" fill="#063537" stroke="#063537" stroke-width="1.51"/>
<path d="M822.636 341.255L841.749 468.735L891.736 443.536L822.636 341.255Z" fill="#063638" stroke="#063638" stroke-width="1.51"/>
<path d="M858.656 536.182L849.835 652.545L952.75 568.052L858.656 536.182Z" fill="#033C3D" stroke="#033C3D" stroke-width="1.51"/>
<path d="M962.306 596.957L961.571 691.827L999.796 586.581L962.306 596.957Z" fill="#023F41" stroke="#023F41" stroke-width="1.51"/>
<path d="M719.721 544.334L849.835 652.545L858.656 536.182L719.721 544.334Z" fill="#043A3C" stroke="#043A3C" stroke-width="1.51"/>
<path d="M914.524 296.043L822.636 341.254L891.736 443.536L914.524 296.043Z" fill="#063738" stroke="#063738" stroke-width="1.51"/>
<path d="M763.828 401.289L719.721 544.334L841.749 468.735L763.828 401.289Z" fill="#053536" stroke="#053536" stroke-width="1.51"/>
<path d="M1027 318.278L914.524 296.043L891.736 443.536L1027 318.278Z" fill="#06393A" stroke="#06393A" stroke-width="1.51"/>
<path d="M849.835 652.545L961.571 691.827L962.306 596.957L849.835 652.545Z" fill="#023F41" stroke="#023F41" stroke-width="1.51"/>
<path d="M719.721 544.334L752.801 670.333L849.835 652.545L719.721 544.334Z" fill="#033B3D" stroke="#033B3D" stroke-width="1.51"/>
<path d="M849.835 652.545L829.252 736.297L961.571 691.827L849.835 652.545Z" fill="#044042" stroke="#044042" stroke-width="1.51"/>
<path d="M1011.56 467.253L1027 318.278L891.736 443.536L1011.56 467.253Z" fill="#05393B" stroke="#05393B" stroke-width="1.51"/>
<path d="M1112.27 442.794L1027 318.278L1011.56 467.253L1112.27 442.794Z" fill="#053A3C" stroke="#053A3C" stroke-width="1.51"/>
<path d="M1121.09 497.641L1011.56 467.253L990.975 554.711L1121.09 497.641Z" fill="#033C3D" stroke="#033C3D" stroke-width="1.51"/>
<path d="M1121.09 497.641L990.975 554.711L999.796 586.581L1121.09 497.641Z" fill="#033D3F" stroke="#033D3F" stroke-width="1.51"/>
<path d="M763.828 401.289L654.297 457.618L719.721 544.334L763.828 401.289Z" fill="#053536" stroke="#053536" stroke-width="1.51"/>
<path d="M719.721 544.334L663.854 633.275L752.801 670.333L719.721 544.334Z" fill="#043B3C" stroke="#043B3C" stroke-width="1.51"/>
<path d="M680.026 325.69L654.297 457.618L763.828 401.289L680.026 325.69Z" fill="#073536" stroke="#073536" stroke-width="1.51"/>
<path d="M1173.28 634.757L1121.09 497.641L999.796 586.581L1173.28 634.757Z" fill="#024041" stroke="#024041" stroke-width="1.51"/>
<path d="M752.801 670.333L829.252 736.297L849.835 652.545L752.801 670.333Z" fill="#053E40" stroke="#053E40" stroke-width="1.51"/>
<path d="M663.854 633.275L753.536 718.509L752.801 670.333L663.854 633.275Z" fill="#053D3F" stroke="#053D3F" stroke-width="1.51"/>
<path d="M752.801 670.333L753.536 718.509L829.252 736.297L752.801 670.333Z" fill="#063E40" stroke="#063E40" stroke-width="1.51"/>
<path d="M624.158 517.652L663.853 633.275L719.721 544.334L624.158 517.652Z" fill="#05393A" stroke="#05393A" stroke-width="1.51"/>
<path d="M654.297 457.618L624.158 517.652L719.721 544.334L654.297 457.618Z" fill="#053638" stroke="#053638" stroke-width="1.51"/>
<path d="M822.636 341.254L680.026 325.69L763.828 401.289L822.636 341.254Z" fill="#073636" stroke="#073636" stroke-width="1.51"/>
<path d="M654.297 457.618L546.237 465.029L624.158 517.652L654.297 457.618Z" fill="#063536" stroke="#063536" stroke-width="1.51"/>
<path d="M686.642 208.585L680.026 325.69L822.636 341.255L686.642 208.585Z" fill="#083536" stroke="#083536" stroke-width="1.51"/>
<path d="M914.524 296.043L854.246 227.115L822.636 341.254L914.524 296.043Z" fill="#073637" stroke="#073637" stroke-width="1.51"/>
<path d="M945.399 190.797L854.246 227.115L914.524 296.043L945.399 190.797Z" fill="#063435" stroke="#063435" stroke-width="1.51"/>
<path d="M1027 318.278L1022.58 221.926L914.524 296.043L1027 318.278Z" fill="#063839" stroke="#063839" stroke-width="1.51"/>
<path d="M1112.27 442.794L1091.68 296.043L1027 318.278L1112.27 442.794Z" fill="#063B3D" stroke="#063B3D" stroke-width="1.51"/>
<path d="M1129.91 224.891L1091.68 296.043L1206.36 221.185L1129.91 224.891Z" fill="#05393B" stroke="#05393B" stroke-width="1.51"/>
<path d="M1091.68 296.043L1022.58 221.926L1027 318.278L1091.68 296.043Z" fill="#06393B" stroke="#06393B" stroke-width="1.51"/>
<path d="M961.571 691.827L1173.28 634.757L999.796 586.581L961.571 691.827Z" fill="#014243" stroke="#014243" stroke-width="1.51"/>
<path d="M829.252 736.297L997.591 778.544L961.571 691.827L829.252 736.297Z" fill="#064245" stroke="#064245" stroke-width="1.51"/>
<path d="M859.391 845.249L997.591 778.543L829.252 736.297L859.391 845.249Z" fill="#094345" stroke="#094345" stroke-width="1.51"/>
<path d="M543.296 347.184L546.237 465.03L654.297 457.618L543.296 347.184Z" fill="#073537" stroke="#073537" stroke-width="1.51"/>
<path d="M686.642 208.585L652.827 295.302L680.026 325.69L686.642 208.585Z" fill="#083335" stroke="#083335" stroke-width="1.51"/>
<path d="M1022.58 221.926L945.399 190.797L914.524 296.043L1022.58 221.926Z" fill="#063536" stroke="#063536" stroke-width="1.51"/>
<path d="M854.246 227.115L686.642 208.585L822.636 341.255L854.246 227.115Z" fill="#073334" stroke="#073334" stroke-width="1.51"/>
<path d="M1176.22 716.285L1173.28 634.757L961.571 691.827L1176.22 716.285Z" fill="#024446" stroke="#024446" stroke-width="1.51"/>
<path d="M1121.09 497.641L1258.55 413.148L1112.27 442.794L1121.09 497.641Z" fill="#043D3E" stroke="#043D3E" stroke-width="1.51"/>
<path d="M994.651 70.7281L921.14 154.48L945.399 190.797L994.651 70.7281Z" fill="#052F31" stroke="#052F31" stroke-width="1.51"/>
<path d="M945.399 190.797L921.14 154.48L854.246 227.115L945.399 190.797Z" fill="#063133" stroke="#063133" stroke-width="1.51"/>
<path d="M543.296 347.184L654.297 457.618L680.026 325.69L543.296 347.184Z" fill="#073537" stroke="#073537" stroke-width="1.51"/>
<path d="M483.753 625.863L605.045 707.391L663.853 633.274L483.753 625.863Z" fill="#053D3F" stroke="#053D3F" stroke-width="1.51"/>
<path d="M807.934 106.304L686.642 208.585L854.246 227.115L807.934 106.304Z" fill="#062E2F" stroke="#062E2F" stroke-width="1.51"/>
<path d="M652.827 295.302L543.296 347.184L680.026 325.69L652.827 295.302Z" fill="#083537" stroke="#083537" stroke-width="1.51"/>
<path d="M746.92 875.636L859.391 845.249L829.252 736.297L746.92 875.636Z" fill="#0B4345" stroke="#0B4345" stroke-width="1.51"/>
<path d="M746.92 875.636L829.252 736.297L753.536 718.509L746.92 875.636Z" fill="#094143" stroke="#094143" stroke-width="1.51"/>
<path d="M663.853 633.275L605.045 707.391L753.536 718.509L663.853 633.275Z" fill="#053E40" stroke="#053E40" stroke-width="1.51"/>
<path d="M502.13 541.37L663.853 633.275L624.158 517.652L502.13 541.37Z" fill="#05393A" stroke="#05393A" stroke-width="1.51"/>
<path d="M1091.68 296.043L1129.91 224.891L1022.58 221.926L1091.68 296.043Z" fill="#053839" stroke="#053839" stroke-width="1.51"/>
<path d="M1022.58 221.926L994.651 70.7281L945.399 190.797L1022.58 221.926Z" fill="#053132" stroke="#053132" stroke-width="1.51"/>
<path d="M1258.55 413.148L1091.68 296.043L1112.27 442.794L1258.55 413.148Z" fill="#053D3E" stroke="#053D3E" stroke-width="1.51"/>
<path d="M1088.74 820.79L1176.22 716.285L997.591 778.543L1088.74 820.79Z" fill="#074749" stroke="#074749" stroke-width="1.51"/>
<path d="M997.591 778.544L1176.22 716.285L961.571 691.827L997.591 778.544Z" fill="#054547" stroke="#054547" stroke-width="1.51"/>
<path d="M686.642 208.585L660.178 199.691L652.827 295.302L686.642 208.585Z" fill="#073133" stroke="#073133" stroke-width="1.51"/>
<path d="M743.245 103.34L660.178 199.691L686.642 208.585L743.245 103.34Z" fill="#072D2E" stroke="#072D2E" stroke-width="1.51"/>
<path d="M499.925 224.15L543.296 347.184L652.827 295.302L499.925 224.15Z" fill="#093536" stroke="#093536" stroke-width="1.51"/>
<path d="M859.391 845.249L971.862 860.813L997.591 778.543L859.391 845.249Z" fill="#0A4547" stroke="#0A4547" stroke-width="1.51"/>
<path d="M971.862 860.813L1060.07 834.872L997.591 778.543L971.862 860.813Z" fill="#094749" stroke="#094749" stroke-width="1.51"/>
<path d="M1276.93 567.311L1121.09 497.641L1173.28 634.757L1276.93 567.311Z" fill="#034143" stroke="#034143" stroke-width="1.51"/>
<path d="M1276.93 567.311L1258.55 413.148L1121.09 497.641L1276.93 567.311Z" fill="#043E40" stroke="#043E40" stroke-width="1.51"/>
<path d="M1060.07 834.872L1088.74 820.79L997.591 778.543L1060.07 834.872Z" fill="#09474A" stroke="#09474A" stroke-width="1.51"/>
<path d="M546.237 465.029L502.13 541.37L624.158 517.652L546.237 465.029Z" fill="#063738" stroke="#063738" stroke-width="1.51"/>
<path d="M459.494 413.889L502.131 541.37L546.237 465.029L459.494 413.889Z" fill="#073636" stroke="#073636" stroke-width="1.51"/>
<path d="M1176.22 716.285L1229.88 673.298L1173.28 634.757L1176.22 716.285Z" fill="#024648" stroke="#024648" stroke-width="1.51"/>
<path d="M1243.12 719.991L1229.88 673.298L1176.22 716.285L1243.12 719.991Z" fill="#044749" stroke="#044749" stroke-width="1.51"/>
<path d="M921.14 154.48L807.934 106.304L854.246 227.115L921.14 154.48Z" fill="#052E30" stroke="#052E30" stroke-width="1.51"/>
<path d="M968.922 50.7167L807.934 106.304L921.14 154.48L968.922 50.7167Z" fill="#062E2F" stroke="#062E2F" stroke-width="1.51"/>
<path d="M1229.88 673.298L1276.93 567.311L1173.28 634.757L1229.88 673.298Z" fill="#024446" stroke="#024446" stroke-width="1.51"/>
<path d="M642.535 854.143L746.92 875.636L753.536 718.509L642.535 854.143Z" fill="#0B4244" stroke="#0B4244" stroke-width="1.51"/>
<path d="M859.391 845.249L915.994 964.577L971.862 860.813L859.391 845.249Z" fill="#094547" stroke="#094547" stroke-width="1.51"/>
<path d="M807.934 106.304L743.245 103.34L686.642 208.585L807.934 106.304Z" fill="#062C2D" stroke="#062C2D" stroke-width="1.51"/>
<path d="M605.045 707.391L642.535 854.143L753.536 718.509L605.045 707.391Z" fill="#094042" stroke="#094042" stroke-width="1.51"/>
<path d="M483.753 625.863L530.064 712.579L605.045 707.391L483.753 625.863Z" fill="#063E40" stroke="#063E40" stroke-width="1.51"/>
<path d="M1278.4 327.172L1206.36 221.185L1091.68 296.043L1278.4 327.172Z" fill="#063C3E" stroke="#063C3E" stroke-width="1.51"/>
<path d="M1276.93 567.311L1295.31 404.254L1258.55 413.148L1276.93 567.311Z" fill="#063E40" stroke="#063E40" stroke-width="1.51"/>
<path d="M1162.25 106.304L994.651 70.7281L1022.58 221.926L1162.25 106.304Z" fill="#053233" stroke="#053233" stroke-width="1.51"/>
<path d="M1278.4 327.172L1091.68 296.043L1258.55 413.148L1278.4 327.172Z" fill="#073E40" stroke="#073E40" stroke-width="1.51"/>
<path d="M502.13 541.37L483.753 625.863L663.853 633.274L502.13 541.37Z" fill="#053B3C" stroke="#053B3C" stroke-width="1.51"/>
<path d="M394.805 567.311L483.753 625.863L502.13 541.37L394.805 567.311Z" fill="#063A3C" stroke="#063A3C" stroke-width="1.51"/>
<path d="M1229.88 673.298L1314.42 588.063L1276.93 567.311L1229.88 673.298Z" fill="#034446" stroke="#034446" stroke-width="1.51"/>
<path d="M1257.82 842.284L1243.12 719.991L1176.22 716.285L1257.82 842.284Z" fill="#08494B" stroke="#08494B" stroke-width="1.51"/>
<path d="M1295.31 404.254L1278.4 327.172L1258.55 413.148L1295.31 404.254Z" fill="#073F40" stroke="#073F40" stroke-width="1.51"/>
<path d="M543.296 878.601L642.536 854.143L605.045 707.391L543.296 878.601Z" fill="#0C4244" stroke="#0C4244" stroke-width="1.51"/>
<path d="M543.296 347.184L459.494 413.889L546.237 465.03L543.296 347.184Z" fill="#073537" stroke="#073537" stroke-width="1.51"/>
<path d="M374.957 331.619L459.494 413.889L543.296 347.184L374.957 331.619Z" fill="#093637" stroke="#093637" stroke-width="1.51"/>
<path d="M499.925 224.15L652.827 295.302L660.178 199.691L499.925 224.15Z" fill="#083133" stroke="#083133" stroke-width="1.51"/>
<path d="M1162.25 106.304L1022.58 221.926L1129.91 224.891L1162.25 106.304Z" fill="#053536" stroke="#053536" stroke-width="1.51"/>
<path d="M790.291 -3.38867L708.695 38.8579L743.245 103.339L790.291 -3.38867Z" fill="#062C2D" stroke="#062C2D" stroke-width="1.51"/>
<path d="M1276.93 567.311L1383.52 543.593L1295.31 404.254L1276.93 567.311Z" fill="#064042" stroke="#064042" stroke-width="1.51"/>
<path d="M1352.65 703.686L1314.42 588.063L1229.88 673.298L1352.65 703.686Z" fill="#044749" stroke="#044749" stroke-width="1.51"/>
<path d="M994.651 70.7282L968.922 50.7167L921.14 154.48L994.651 70.7282Z" fill="#053031" stroke="#053031" stroke-width="1.51"/>
<path d="M1029.2 -9.31799L968.922 50.7166L994.651 70.7281L1029.2 -9.31799Z" fill="#053032" stroke="#053032" stroke-width="1.51"/>
<path d="M1206.36 221.185L1193.13 150.033L1129.91 224.891L1206.36 221.185Z" fill="#053739" stroke="#053739" stroke-width="1.51"/>
<path d="M1300.45 170.786L1193.13 150.033L1206.36 221.185L1300.45 170.786Z" fill="#073738" stroke="#073738" stroke-width="1.51"/>
<path d="M737.364 960.871L786.616 953.459L746.92 875.636L737.364 960.871Z" fill="#0B4244" stroke="#0B4244" stroke-width="1.51"/>
<path d="M746.92 875.636L786.616 953.459L859.391 845.249L746.92 875.636Z" fill="#0B4244" stroke="#0B4244" stroke-width="1.51"/>
<path d="M971.862 860.813L1062.28 938.636L1060.07 834.872L971.862 860.813Z" fill="#094749" stroke="#094749" stroke-width="1.51"/>
<path d="M786.616 953.459L915.994 964.577L859.391 845.249L786.616 953.459Z" fill="#0A4345" stroke="#0A4345" stroke-width="1.51"/>
<path d="M1060.07 834.872L1062.28 938.636L1088.74 820.79L1060.07 834.872Z" fill="#09484A" stroke="#09484A" stroke-width="1.51"/>
<path d="M1088.74 820.79L1257.82 842.284L1176.22 716.285L1088.74 820.79Z" fill="#08494C" stroke="#08494C" stroke-width="1.51"/>
<path d="M522.713 95.9279L499.925 224.15L660.178 199.691L522.713 95.9279Z" fill="#082E2F" stroke="#082E2F" stroke-width="1.51"/>
<path d="M1193.13 150.033L1162.25 106.304L1129.91 224.891L1193.13 150.033Z" fill="#053536" stroke="#053536" stroke-width="1.51"/>
<path d="M915.994 964.576L1062.28 938.636L971.862 860.813L915.994 964.576Z" fill="#0A4648" stroke="#0A4648" stroke-width="1.51"/>
<path d="M743.245 103.339L649.151 38.1167L660.178 199.691L743.245 103.339Z" fill="#062C2D" stroke="#062C2D" stroke-width="1.51"/>
<path d="M790.292 -3.38867L743.245 103.339L807.934 106.304L790.292 -3.38867Z" fill="#062C2D" stroke="#062C2D" stroke-width="1.51"/>
<path d="M642.535 854.143L737.364 960.871L746.92 875.636L642.535 854.143Z" fill="#0B4244" stroke="#0B4244" stroke-width="1.51"/>
<path d="M483.753 625.863L410.242 704.427L530.064 712.579L483.753 625.863Z" fill="#073E40" stroke="#073E40" stroke-width="1.51"/>
<path d="M530.064 712.58L543.296 878.601L605.045 707.391L530.064 712.58Z" fill="#0A4143" stroke="#0A4143" stroke-width="1.51"/>
<path d="M459.494 413.889L394.805 567.311L502.13 541.37L459.494 413.889Z" fill="#073738" stroke="#073738" stroke-width="1.51"/>
<path d="M314.679 506.535L394.805 567.311L459.494 413.889L314.679 506.535Z" fill="#083637" stroke="#083637" stroke-width="1.51"/>
<path d="M1295.31 404.254L1359.26 341.254L1278.4 327.172L1295.31 404.254Z" fill="#093F41" stroke="#093F41" stroke-width="1.51"/>
<path d="M1278.4 327.172L1300.45 170.786L1206.36 221.185L1278.4 327.172Z" fill="#073B3C" stroke="#073B3C" stroke-width="1.51"/>
<path d="M1202.69 19.5875L1118.88 33.6697L1162.25 106.304L1202.69 19.5875Z" fill="#053435" stroke="#053435" stroke-width="1.51"/>
<path d="M1441.59 432.418L1359.26 341.255L1295.31 404.254L1441.59 432.418Z" fill="#084042" stroke="#084042" stroke-width="1.51"/>
<path d="M1314.42 588.063L1383.52 543.593L1276.93 567.311L1314.42 588.063Z" fill="#054345" stroke="#054345" stroke-width="1.51"/>
<path d="M1409.98 555.452L1383.52 543.593L1314.42 588.063L1409.98 555.452Z" fill="#074445" stroke="#074445" stroke-width="1.51"/>
<path d="M1029.2 -9.31799L790.292 -3.38865L968.922 50.7166L1029.2 -9.31799Z" fill="#052F30" stroke="#052F30" stroke-width="1.51"/>
<path d="M968.922 50.7166L790.292 -3.38867L807.934 106.304L968.922 50.7166Z" fill="#062D2E" stroke="#062D2E" stroke-width="1.51"/>
<path d="M1243.12 719.991L1352.65 703.685L1229.88 673.298L1243.12 719.991Z" fill="#05484A" stroke="#05484A" stroke-width="1.51"/>
<path d="M1165.19 959.388L1257.82 842.284L1088.74 820.79L1165.19 959.388Z" fill="#094A4C" stroke="#094A4C" stroke-width="1.51"/>
<path d="M790.291 -3.38867L649.151 38.1167L708.695 38.8579L790.291 -3.38867Z" fill="#062C2D" stroke="#062C2D" stroke-width="1.51"/>
<path d="M708.695 38.8579L649.151 38.1167L743.245 103.339L708.695 38.8579Z" fill="#062C2D" stroke="#062C2D" stroke-width="1.51"/>
<path d="M1334.27 843.766L1352.65 703.685L1243.12 719.991L1334.27 843.766Z" fill="#0A4A4C" stroke="#0A4A4C" stroke-width="1.51"/>
<path d="M1162.25 106.304L1118.88 33.6698L994.651 70.7282L1162.25 106.304Z" fill="#053234" stroke="#053234" stroke-width="1.51"/>
<path d="M1202.69 19.5875L1162.25 106.304L1193.13 150.033L1202.69 19.5875Z" fill="#053435" stroke="#053435" stroke-width="1.51"/>
<path d="M438.911 857.107L543.296 878.601L530.064 712.58L438.911 857.107Z" fill="#0D4244" stroke="#0D4244" stroke-width="1.51"/>
<path d="M642.535 854.143L611.661 983.847L737.364 960.871L642.535 854.143Z" fill="#0B4244" stroke="#0B4244" stroke-width="1.51"/>
<path d="M369.077 662.18L410.242 704.427L483.753 625.863L369.077 662.18Z" fill="#073D40" stroke="#073D40" stroke-width="1.51"/>
<path d="M1118.88 33.6697L1029.2 -9.31799L994.651 70.7281L1118.88 33.6697Z" fill="#053133" stroke="#053133" stroke-width="1.51"/>
<path d="M649.151 38.1167L582.992 67.7634L660.178 199.691L649.151 38.1167Z" fill="#072C2D" stroke="#072C2D" stroke-width="1.51"/>
<path d="M1415.87 255.279L1300.45 170.786L1278.4 327.172L1415.87 255.279Z" fill="#093C3E" stroke="#093C3E" stroke-width="1.51"/>
<path d="M1383.52 543.593L1441.59 432.418L1295.31 404.254L1383.52 543.593Z" fill="#084042" stroke="#084042" stroke-width="1.51"/>
<path d="M1352.65 703.685L1409.98 555.452L1314.42 588.063L1352.65 703.685Z" fill="#054648" stroke="#054648" stroke-width="1.51"/>
<path d="M499.925 224.15L374.957 331.619L543.296 347.184L499.925 224.15Z" fill="#0A3537" stroke="#0A3537" stroke-width="1.51"/>
<path d="M413.183 225.632L374.957 331.619L499.925 224.15L413.183 225.632Z" fill="#0A3335" stroke="#0A3335" stroke-width="1.51"/>
<path d="M582.992 67.7635L522.713 95.9279L660.178 199.691L582.992 67.7635Z" fill="#072C2D" stroke="#072C2D" stroke-width="1.51"/>
<path d="M1062.28 938.636L1165.19 959.388L1088.74 820.79L1062.28 938.636Z" fill="#09484B" stroke="#09484B" stroke-width="1.51"/>
<path d="M407.302 142.621L413.183 225.632L499.925 224.15L407.302 142.621Z" fill="#082F31" stroke="#082F31" stroke-width="1.51"/>
<path d="M394.805 567.311L369.077 662.18L483.753 625.863L394.805 567.311Z" fill="#063C3E" stroke="#063C3E" stroke-width="1.51"/>
<path d="M410.242 704.427L438.911 857.107L530.064 712.58L410.242 704.427Z" fill="#0B4143" stroke="#0B4143" stroke-width="1.51"/>
<path d="M273.513 621.416L369.077 662.18L394.805 567.311L273.513 621.416Z" fill="#063A3C" stroke="#063A3C" stroke-width="1.51"/>
<path d="M541.091 963.835L611.661 983.847L543.296 878.601L541.091 963.835Z" fill="#0C4244" stroke="#0C4244" stroke-width="1.51"/>
<path d="M543.296 878.601L611.661 983.847L642.536 854.143L543.296 878.601Z" fill="#0C4244" stroke="#0C4244" stroke-width="1.51"/>
<path d="M1359.26 341.254L1415.87 255.279L1278.4 327.172L1359.26 341.254Z" fill="#0A4042" stroke="#0A4042" stroke-width="1.51"/>
<path d="M1409.98 555.452L1441.59 432.418L1383.52 543.593L1409.98 555.452Z" fill="#084244" stroke="#084244" stroke-width="1.51"/>
<path d="M1118.88 33.6697L1202.69 19.5876L1029.2 -9.31799L1118.88 33.6697Z" fill="#053334" stroke="#053334" stroke-width="1.51"/>
<path d="M1300.45 170.786L1202.69 19.5875L1193.13 150.033L1300.45 170.786Z" fill="#063536" stroke="#063536" stroke-width="1.51"/>
<path d="M1352.65 703.685L1469.53 605.11L1409.98 555.452L1352.65 703.685Z" fill="#074749" stroke="#074749" stroke-width="1.51"/>
<path d="M1257.82 842.284L1334.27 843.766L1243.12 719.991L1257.82 842.284Z" fill="#0B4B4D" stroke="#0B4B4D" stroke-width="1.51"/>
<path d="M1320.3 950.494L1334.27 843.766L1257.82 842.284L1320.3 950.494Z" fill="#0C4C4E" stroke="#0C4C4E" stroke-width="1.51"/>
<path d="M311.003 443.536L314.679 506.535L459.494 413.889L311.003 443.536Z" fill="#083435" stroke="#083435" stroke-width="1.51"/>
<path d="M413.183 225.632L349.229 300.49L374.957 331.619L413.183 225.632Z" fill="#093435" stroke="#093435" stroke-width="1.51"/>
<path d="M302.182 261.208L349.229 300.49L413.183 225.632L302.182 261.208Z" fill="#093233" stroke="#093233" stroke-width="1.51"/>
<path d="M311.003 443.535L459.494 413.889L374.957 331.619L311.003 443.535Z" fill="#083537" stroke="#083537" stroke-width="1.51"/>
<path d="M1165.19 959.388L1229.15 954.941L1257.82 842.284L1165.19 959.388Z" fill="#0A4A4D" stroke="#0A4A4D" stroke-width="1.51"/>
<path d="M334.527 749.638L438.911 857.107L410.242 704.427L334.527 749.638Z" fill="#0C4043" stroke="#0C4043" stroke-width="1.51"/>
<path d="M349.229 300.49L311.003 443.536L374.957 331.619L349.229 300.49Z" fill="#093436" stroke="#093436" stroke-width="1.51"/>
<path d="M438.911 857.107L541.091 963.835L543.296 878.601L438.911 857.107Z" fill="#0D4244" stroke="#0D4244" stroke-width="1.51"/>
<path d="M1300.45 170.786L1345.3 49.9754L1202.69 19.5875L1300.45 170.786Z" fill="#073537" stroke="#073537" stroke-width="1.51"/>
<path d="M1459.97 311.608L1415.87 255.279L1359.26 341.254L1459.97 311.608Z" fill="#0C4043" stroke="#0C4043" stroke-width="1.51"/>
<path d="M522.713 95.9279L407.302 142.621L499.925 224.15L522.713 95.9279Z" fill="#072D2E" stroke="#072D2E" stroke-width="1.51"/>
<path d="M418.329 10.6936L407.302 142.621L522.713 95.9279L418.329 10.6936Z" fill="#072C2E" stroke="#072C2E" stroke-width="1.51"/>
<path d="M496.985 -7.83569L522.713 95.9278L582.992 67.7634L496.985 -7.83569Z" fill="#072C2D" stroke="#072C2D" stroke-width="1.51"/>
<path d="M1409.98 555.452L1552.59 510.241L1441.59 432.418L1409.98 555.452Z" fill="#0A4244" stroke="#0A4244" stroke-width="1.51"/>
<path d="M1441.59 432.418L1459.97 311.608L1359.26 341.254L1441.59 432.418Z" fill="#0A4143" stroke="#0A4143" stroke-width="1.51"/>
<path d="M1451.15 705.168L1469.53 605.11L1352.65 703.685L1451.15 705.168Z" fill="#08494B" stroke="#08494B" stroke-width="1.51"/>
<path d="M1415.87 255.279L1381.32 150.033L1300.45 170.786L1415.87 255.279Z" fill="#09393B" stroke="#09393B" stroke-width="1.51"/>
<path d="M1551.12 301.231L1459.97 311.608L1587.14 380.536L1551.12 301.231Z" fill="#0D4245" stroke="#0D4245" stroke-width="1.51"/>
<path d="M1415.87 255.279L1466.59 114.457L1381.32 150.033L1415.87 255.279Z" fill="#0A383B" stroke="#0A383B" stroke-width="1.51"/>
<path d="M1462.91 818.566L1451.15 705.168L1352.65 703.685L1462.91 818.566Z" fill="#0C4C4E" stroke="#0C4C4E" stroke-width="1.51"/>
<path d="M438.911 857.107L376.428 956.424L541.091 963.835L438.911 857.107Z" fill="#0D4245" stroke="#0D4245" stroke-width="1.51"/>
<path d="M369.077 662.18L334.527 749.638L410.242 704.427L369.077 662.18Z" fill="#093E40" stroke="#093E40" stroke-width="1.51"/>
<path d="M273.513 621.416L334.527 749.638L369.077 662.18L273.513 621.416Z" fill="#073C3D" stroke="#073C3D" stroke-width="1.51"/>
<path d="M314.679 506.535L273.513 621.416L394.805 567.311L314.679 506.535Z" fill="#063739" stroke="#063739" stroke-width="1.51"/>
<path d="M244.109 517.652L273.513 621.416L314.679 506.535L244.109 517.652Z" fill="#063537" stroke="#063537" stroke-width="1.51"/>
<path d="M311.003 443.536L249.254 437.606L314.679 506.535L311.003 443.536Z" fill="#073234" stroke="#073234" stroke-width="1.51"/>
<path d="M349.229 300.49L249.254 437.606L311.003 443.536L349.229 300.49Z" fill="#083334" stroke="#083334" stroke-width="1.51"/>
<path d="M298.506 149.292L302.182 261.208L413.183 225.632L298.506 149.292Z" fill="#092E30" stroke="#092E30" stroke-width="1.51"/>
<path d="M1334.27 843.766L1462.91 818.566L1352.65 703.685L1334.27 843.766Z" fill="#0D4C4F" stroke="#0D4C4F" stroke-width="1.51"/>
<path d="M1229.15 954.941L1320.3 950.494L1257.82 842.284L1229.15 954.941Z" fill="#0C4B4E" stroke="#0C4B4E" stroke-width="1.51"/>
<path d="M407.302 142.621L298.506 149.292L413.183 225.632L407.302 142.621Z" fill="#082D2E" stroke="#082D2E" stroke-width="1.51"/>
<path d="M649.151 38.1167L496.985 -7.83569L582.992 67.7634L649.151 38.1167Z" fill="#072C2D" stroke="#072C2D" stroke-width="1.51"/>
<path d="M790.291 -3.38869L496.985 -7.83569L649.151 38.1167L790.291 -3.38869Z" fill="#072C2D" stroke="#072C2D" stroke-width="1.51"/>
<path d="M1466.59 114.457L1345.3 49.9755L1381.32 150.033L1466.59 114.457Z" fill="#093738" stroke="#093738" stroke-width="1.51"/>
<path d="M1381.32 150.033L1345.3 49.9755L1300.45 170.786L1381.32 150.033Z" fill="#083638" stroke="#083638" stroke-width="1.51"/>
<path d="M193.386 336.807L249.254 437.606L349.229 300.49L193.386 336.807Z" fill="#083233" stroke="#083233" stroke-width="1.51"/>
<path d="M249.254 437.606L244.109 517.652L314.679 506.535L249.254 437.606Z" fill="#073233" stroke="#073233" stroke-width="1.51"/>
<path d="M1451.15 705.168L1512.16 645.133L1469.53 605.11L1451.15 705.168Z" fill="#08494C" stroke="#08494C" stroke-width="1.51"/>
<path d="M1469.53 605.11L1552.59 510.241L1409.98 555.452L1469.53 605.11Z" fill="#094547" stroke="#094547" stroke-width="1.51"/>
<path d="M1520.25 761.497L1512.16 645.133L1451.15 705.168L1520.25 761.497Z" fill="#0B4B4E" stroke="#0B4B4E" stroke-width="1.51"/>
<path d="M1434.24 974.953L1462.91 818.566L1334.27 843.766L1434.24 974.953Z" fill="#0F4D50" stroke="#0F4D50" stroke-width="1.51"/>
<path d="M1512.16 645.133L1552.6 510.241L1469.53 605.11L1512.16 645.133Z" fill="#094749" stroke="#094749" stroke-width="1.51"/>
<path d="M1554.8 212.291L1466.59 114.457L1415.87 255.279L1554.8 212.291Z" fill="#0B3B3D" stroke="#0B3B3D" stroke-width="1.51"/>
<path d="M496.985 -7.83569L418.328 10.6935L522.713 95.9278L496.985 -7.83569Z" fill="#072C2E" stroke="#072C2E" stroke-width="1.51"/>
<path d="M351.434 49.2343L298.506 149.292L407.302 142.621L351.434 49.2343Z" fill="#072B2C" stroke="#072B2C" stroke-width="1.51"/>
<path d="M302.182 261.208L193.386 336.807L349.229 300.49L302.182 261.208Z" fill="#0A3234" stroke="#0A3234" stroke-width="1.51"/>
<path d="M310.268 903.801L376.428 956.424L438.911 857.107L310.268 903.801Z" fill="#0D4144" stroke="#0D4144" stroke-width="1.51"/>
<path d="M310.268 903.801L438.911 857.107L334.527 749.638L310.268 903.801Z" fill="#0D4143" stroke="#0D4143" stroke-width="1.51"/>
<path d="M1462.91 818.566L1520.25 761.497L1451.15 705.168L1462.91 818.566Z" fill="#0E4D50" stroke="#0E4D50" stroke-width="1.51"/>
<path d="M273.513 621.416L227.201 698.497L334.527 749.638L273.513 621.416Z" fill="#073B3D" stroke="#073B3D" stroke-width="1.51"/>
<path d="M166.188 609.557L227.201 698.497L273.513 621.416L166.188 609.557Z" fill="#05383A" stroke="#05383A" stroke-width="1.51"/>
<path d="M166.188 609.557L273.513 621.416L244.109 517.652L166.188 609.557Z" fill="#063637" stroke="#063637" stroke-width="1.51"/>
<path d="M418.329 10.6936L351.434 49.2343L407.302 142.621L418.329 10.6936Z" fill="#082C2D" stroke="#082C2D" stroke-width="1.51"/>
<path d="M1554.8 212.291L1415.87 255.279L1459.97 311.608L1554.8 212.291Z" fill="#0D3F41" stroke="#0D3F41" stroke-width="1.51"/>
<path d="M1587.14 380.536L1459.97 311.608L1441.59 432.418L1587.14 380.536Z" fill="#0C4244" stroke="#0C4244" stroke-width="1.51"/>
<path d="M123.552 223.409L238.963 224.15L190.446 74.434L123.552 223.409Z" fill="#07282A" stroke="#07282A" stroke-width="1.51"/>
<path d="M298.506 149.292L238.963 224.15L302.182 261.208L298.506 149.292Z" fill="#082D2E" stroke="#082D2E" stroke-width="1.51"/>
<path d="M138.254 508.017L166.188 609.557L244.109 517.652L138.254 508.017Z" fill="#063234" stroke="#063234" stroke-width="1.51"/>
<path d="M266.897 884.53L310.268 903.801L334.527 749.638L266.897 884.53Z" fill="#0D4042" stroke="#0D4042" stroke-width="1.51"/>
<path d="M238.963 224.15L193.386 336.807L302.182 261.208L238.963 224.15Z" fill="#082F31" stroke="#082F31" stroke-width="1.51"/>
<path d="M1551.12 301.231L1554.8 212.291L1459.97 311.608L1551.12 301.231Z" fill="#0D4043" stroke="#0D4043" stroke-width="1.51"/>
<path d="M1552.59 510.241L1587.14 380.536L1441.59 432.418L1552.59 510.241Z" fill="#0B4244" stroke="#0B4244" stroke-width="1.51"/>
<path d="M1320.3 950.494L1434.24 974.953L1334.27 843.766L1320.3 950.494Z" fill="#0E4D4F" stroke="#0E4D4F" stroke-width="1.51"/>
<path d="M1462.91 818.567L1547.45 805.225L1520.25 761.497L1462.91 818.567Z" fill="#114E51" stroke="#114E51" stroke-width="1.51"/>
<path d="M208.089 800.778L266.897 884.53L334.527 749.638L208.089 800.778Z" fill="#0C3F41" stroke="#0C3F41" stroke-width="1.51"/>
<path d="M138.254 508.017L244.109 517.652L249.254 437.606L138.254 508.017Z" fill="#073132" stroke="#073132" stroke-width="1.51"/>
<path d="M208.089 800.778L334.527 749.638L227.201 698.497L208.089 800.778Z" fill="#0A3C3F" stroke="#0A3C3F" stroke-width="1.51"/>
<path d="M1507.02 914.918L1547.45 805.226L1462.91 818.567L1507.02 914.918Z" fill="#114F52" stroke="#114F52" stroke-width="1.51"/>
<path d="M1577.59 -18.9531L1423.95 -5.6121L1466.59 114.457L1577.59 -18.9531Z" fill="#0B383A" stroke="#0B383A" stroke-width="1.51"/>
<path d="M1466.59 114.457L1423.95 -5.61206L1345.3 49.9755L1466.59 114.457Z" fill="#093739" stroke="#093739" stroke-width="1.51"/>
<path d="M1345.3 49.9755L1423.95 -5.61206L1202.69 19.5876L1345.3 49.9755Z" fill="#083537" stroke="#083537" stroke-width="1.51"/>
<path d="M1202.69 19.5876L1423.95 -5.61215L1029.2 -9.31799L1202.69 19.5876Z" fill="#063436" stroke="#063436" stroke-width="1.51"/>
<path d="M113.995 697.756L208.089 800.778L227.201 698.497L113.995 697.756Z" fill="#083A3C" stroke="#083A3C" stroke-width="1.51"/>
<path d="M166.188 609.557L132.373 629.569L227.201 698.497L166.188 609.557Z" fill="#053738" stroke="#053738" stroke-width="1.51"/>
<path d="M127.227 417.595L138.254 508.017L249.254 437.606L127.227 417.595Z" fill="#072F30" stroke="#072F30" stroke-width="1.51"/>
<path d="M1434.24 974.953L1507.02 914.918L1462.91 818.566L1434.24 974.953Z" fill="#104E51" stroke="#104E51" stroke-width="1.51"/>
<path d="M1554.8 212.291L1590.82 112.234L1466.59 114.457L1554.8 212.291Z" fill="#0B383A" stroke="#0B383A" stroke-width="1.51"/>
<path d="M193.386 336.807L127.227 417.595L249.254 437.606L193.386 336.807Z" fill="#083031" stroke="#083031" stroke-width="1.51"/>
<path d="M145.605 304.196L127.227 417.595L193.386 336.807L145.605 304.196Z" fill="#082F30" stroke="#082F30" stroke-width="1.51"/>
<path d="M123.552 223.409L145.605 304.196L238.963 224.15L123.552 223.409Z" fill="#072C2E" stroke="#072C2E" stroke-width="1.51"/>
<path d="M238.963 224.15L145.605 304.196L193.386 336.807L238.963 224.15Z" fill="#092F30" stroke="#092F30" stroke-width="1.51"/>
<path d="M138.254 508.017L132.373 629.569L166.188 609.557L138.254 508.017Z" fill="#053335" stroke="#053335" stroke-width="1.51"/>
<path d="M113.995 697.756L132.373 629.569L25.7826 607.334L113.995 697.756Z" fill="#053536" stroke="#053536" stroke-width="1.51"/>
<path d="M208.089 800.778L224.996 908.248L266.897 884.53L208.089 800.778Z" fill="#0C3E40" stroke="#0C3E40" stroke-width="1.51"/>
<path d="M266.897 884.531L224.996 908.248L310.268 903.801L266.897 884.531Z" fill="#0C3F41" stroke="#0C3F41" stroke-width="1.51"/>
<path d="M135.313 868.225L224.996 908.248L208.089 800.778L135.313 868.225Z" fill="#0C3D3F" stroke="#0C3D3F" stroke-width="1.51"/>
<path d="M132.373 629.569L113.995 697.756L227.201 698.497L132.373 629.569Z" fill="#063739" stroke="#063739" stroke-width="1.51"/>
<path d="M25.7826 607.334L132.373 629.569L138.254 508.017L25.7826 607.334Z" fill="#063233" stroke="#063233" stroke-width="1.51"/>
<path d="M127.227 417.595L45.6304 382.019L138.254 508.017L127.227 417.595Z" fill="#072D2E" stroke="#072D2E" stroke-width="1.51"/>
<path d="M145.605 304.196L45.6304 382.019L127.227 417.595L145.605 304.196Z" fill="#082E2F" stroke="#082E2F" stroke-width="1.51"/>
<path d="M190.446 74.434L238.963 224.15L298.506 149.292L190.446 74.434Z" fill="#07282A" stroke="#07282A" stroke-width="1.51"/>
<path d="M351.434 49.2343L190.446 74.434L298.506 149.292L351.434 49.2343Z" fill="#07292A" stroke="#07292A" stroke-width="1.51"/>
<path d="M205.148 18.8464L190.446 74.434L351.434 49.2343L205.148 18.8464Z" fill="#072829" stroke="#072829" stroke-width="1.51"/>
<path d="M418.329 10.6936L205.148 18.8465L351.434 49.2343L418.329 10.6936Z" fill="#072A2B" stroke="#072A2B" stroke-width="1.51"/>
<path d="M190.446 74.434L87.5314 117.422L123.552 223.409L190.446 74.434Z" fill="#062526" stroke="#062526" stroke-width="1.51"/>
<path d="M16.9614 -27.106L205.148 18.8465L418.329 10.6936L16.9614 -27.106Z" fill="#072728" stroke="#072728" stroke-width="1.51"/>
<path d="M113.995 697.756L135.313 868.225L208.089 800.778L113.995 697.756Z" fill="#0B3B3D" stroke="#0B3B3D" stroke-width="1.51"/>
<path d="M1.52417 347.184L45.6304 382.019L145.605 304.196L1.52417 347.184Z" fill="#072D2E" stroke="#072D2E" stroke-width="1.51"/>
<path d="M113.995 697.756L0.789062 863.037L135.313 868.225L113.995 697.756Z" fill="#0B393B" stroke="#0B393B" stroke-width="1.51"/>
<path d="M1.52417 347.184L145.605 304.196L22.8422 219.703L1.52417 347.184Z" fill="#072C2D" stroke="#072C2D" stroke-width="1.51"/>
<path d="M1590.82 112.234L1577.59 -18.9531L1466.59 114.457L1590.82 112.234Z" fill="#0B383A" stroke="#0B383A" stroke-width="1.51"/>
<path d="M-39.6417 553.228L25.7826 607.334L138.254 508.017L-39.6417 553.228Z" fill="#052F31" stroke="#052F31" stroke-width="1.51"/>
<path d="M97.8229 42.5638L87.5314 117.422L190.446 74.4341L97.8229 42.5638Z" fill="#062526" stroke="#062526" stroke-width="1.51"/>
<path d="M45.6304 382.019L-39.6417 553.228L138.254 508.017L45.6304 382.019Z" fill="#062C2D" stroke="#062C2D" stroke-width="1.51"/>
<path d="M22.8422 219.703L145.605 304.196L123.552 223.409L22.8422 219.703Z" fill="#082A2C" stroke="#082A2C" stroke-width="1.51"/>
<path d="M87.5314 117.422L22.8422 219.703L123.551 223.409L87.5314 117.422Z" fill="#062627" stroke="#062627" stroke-width="1.51"/>
<path d="M87.5314 117.422L-13.1779 155.962L22.8422 219.703L87.5314 117.422Z" fill="#062425" stroke="#062425" stroke-width="1.51"/>
<path d="M205.148 18.8464L97.8229 42.5638L190.446 74.434L205.148 18.8464Z" fill="#062627" stroke="#062627" stroke-width="1.51"/>
<path d="M25.7826 607.334L-5.0918 707.391L113.995 697.756L25.7826 607.334Z" fill="#063436" stroke="#063436" stroke-width="1.51"/>
<path d="M-133 644.392L-5.09179 707.391L25.7826 607.334L-133 644.392Z" fill="#053435" stroke="#053435" stroke-width="1.51"/>
<path d="M-98.4501 398.324L45.6304 382.019L1.52413 347.184L-98.4501 398.324Z" fill="#072C2D" stroke="#072C2D" stroke-width="1.51"/>
<path d="M-98.4501 398.324L-39.6417 553.228L45.6304 382.019L-98.4501 398.324Z" fill="#062C2D" stroke="#062C2D" stroke-width="1.51"/>
<path d="M135.313 868.225L89.7367 980.141L224.996 908.248L135.313 868.225Z" fill="#0C3C3D" stroke="#0C3C3D" stroke-width="1.51"/>
<path d="M0.789062 863.037L89.7367 980.141L135.313 868.225L0.789062 863.037Z" fill="#0B393B" stroke="#0B393B" stroke-width="1.51"/>
<path d="M-78.6023 737.779L0.789055 863.037L-5.09178 707.391L-78.6023 737.779Z" fill="#093739" stroke="#093739" stroke-width="1.51"/>
<path d="M-5.0918 707.391L0.78904 863.037L113.995 697.756L-5.0918 707.391Z" fill="#093638" stroke="#093638" stroke-width="1.51"/>
<path d="M-107.271 333.843L-98.4501 398.324L1.52415 347.184L-107.271 333.843Z" fill="#072C2D" stroke="#072C2D" stroke-width="1.51"/>
<path d="M97.8229 42.5638L-13.1779 155.963L87.5314 117.422L97.8229 42.5638Z" fill="#062324" stroke="#062324" stroke-width="1.51"/>
<path d="M-107.271 333.843L1.52416 347.184L22.8422 219.703L-107.271 333.843Z" fill="#082C2D" stroke="#082C2D" stroke-width="1.51"/>
<path d="M-133 644.392L25.7826 607.334L-39.6417 553.229L-133 644.392Z" fill="#053133" stroke="#053133" stroke-width="1.51"/>
<path d="M-103.596 204.138L-107.271 333.843L22.8422 219.703L-103.596 204.138Z" fill="#07292A" stroke="#07292A" stroke-width="1.51"/>
<path d="M97.8229 42.5638L16.9613 -27.106L-13.1779 155.962L97.8229 42.5638Z" fill="#062324" stroke="#062324" stroke-width="1.51"/>
<path d="M-13.1779 155.963L-103.596 204.138L22.8422 219.703L-13.1779 155.963Z" fill="#062627" stroke="#062627" stroke-width="1.51"/>
<path d="M205.148 18.8465L16.9614 -27.106L97.8229 42.5638L205.148 18.8465Z" fill="#062426" stroke="#062426" stroke-width="1.51"/>
<path d="M496.985 -7.83559L16.9614 -27.106L418.329 10.6936L496.985 -7.83559Z" fill="#072A2B" stroke="#072A2B" stroke-width="1.51"/>
<path d="M0.789036 863.037L-39.6417 904.542L89.7367 980.141L0.789036 863.037Z" fill="#0B383A" stroke="#0B383A" stroke-width="1.51"/>
<path d="M-94.0395 845.99L-39.6417 904.542L0.789047 863.037L-94.0395 845.99Z" fill="#0B383A" stroke="#0B383A" stroke-width="1.51"/>
<path d="M-78.6023 737.779L-94.0395 845.99L0.789047 863.037L-78.6023 737.779Z" fill="#0B383A" stroke="#0B383A" stroke-width="1.51"/>
<path d="M16.9613 -27.106L-124.914 -36L-13.178 155.962L16.9613 -27.106Z" fill="#062324" stroke="#062324" stroke-width="1.51"/>
</g>
</svg>