<svg height="36" viewBox="0 0 36 36" width="36" xmlns="http://www.w3.org/2000/svg"><path d="m5.08239317 20c-.0544432-.4925008-.08239317-.9929864-.08239317-1.5 0-7.4558441 6.0441559-13.5 13.5-13.5s13.5 6.0441559 13.5 13.5-6.0441559 13.5-13.5 13.5c-3.4644562 0-6.6241121-1.305005-9.01420952-3.4502566l2.12531962-2.1253196c1.8438329 1.6042515 4.2529289 2.5755762 6.8888899 2.5755762 5.7989899 0 10.5-4.7010101 10.5-10.5s-4.7010101-10.5-10.5-10.5-10.5 4.7010101-10.5 10.5c0 .509282.03625794 1.0100955.10633329 1.5h3.89366671l-5.5 5-5.5-5zm13.91760683-1.0056897 3.9977216 3.0124993-1.2036301 1.597271-4.7827765-3.6040806h-.011315v-8h2z" fill="#b2b2b2"/></svg>