<svg xmlns="http://www.w3.org/2000/svg" width="32" height="32" viewBox="0 0 32 32">
  <path fill="#236DE7" d="M16,0 C7.16278857,0 0,7.16278857 0,16 C0,24.83712 7.16278857,32 16,32 C24.83712,32 32,24.83712 32,16 C32,7.16278857 24.83712,0 16,0 Z M23.6560457,17.2845714 L14.1121829,23.85024 C13.8466743,24.0320914 13.5376457,24.1250743 13.2277943,24.1250743 C12.9783771,24.1250743 12.7307886,24.0658286 12.5027657,23.9466971 C11.9903086,23.6756114 11.66848,23.1442286 11.66848,22.5658514 L11.66848,9.43433143 C11.66848,8.85595429 11.9903086,8.32448 12.5027657,8.05339429 C13.0152229,7.78459429 13.6343771,7.82162286 14.1121829,8.14985143 L23.6560457,14.7154286 C24.0783543,15.0061714 24.3314286,15.4871771 24.3314286,16 C24.3314286,16.5128229 24.0784457,16.9938286 23.6560457,17.2845714 Z"/>
</svg>
